<?xml version="1.0" encoding="utf-8" ?>
<svg xmlns="http://www.w3.org/2000/svg" xmlns:xlink="http://www.w3.org/1999/xlink" width="1024" height="1024">
	<path fill="#E1E1E1" d="M0 0L1024 0L1024 1024L0 1024L0 0Z"/>
	<path d="M639.988 288.212C663.623 286.186 688.91 292.303 709.519 303.804C740.585 321.141 761.057 350.335 770.424 384.295C781.54 424.602 779.302 480.071 758.062 516.782Q757.355 518.033 756.617 519.266Q755.879 520.498 755.111 521.713Q754.343 522.927 753.544 524.121Q752.746 525.316 751.919 526.491Q751.091 527.665 750.234 528.819Q749.378 529.972 748.493 531.104Q747.608 532.236 746.695 533.346Q745.782 534.455 744.842 535.542Q743.902 536.629 742.936 537.692Q741.969 538.755 740.976 539.793Q739.983 540.832 738.965 541.845Q737.947 542.859 736.904 543.847Q735.86 544.835 734.793 545.797Q733.726 546.759 732.635 547.694Q731.544 548.629 730.43 549.536Q729.316 550.444 728.18 551.324Q727.044 552.203 725.887 553.055Q724.729 553.906 723.551 554.728Q722.373 555.55 721.174 556.343Q719.976 557.136 718.759 557.899Q717.541 558.661 716.305 559.393Q715.068 560.126 713.815 560.827Q712.56 561.528 711.289 562.198Q710.018 562.868 708.731 563.507Q707.444 564.145 706.141 564.751Q704.838 565.357 703.521 565.93Q702.204 566.504 700.872 567.044Q699.541 567.585 698.197 568.092Q696.853 568.6 695.496 569.074Q694.14 569.547 692.772 569.988Q691.404 570.428 690.026 570.833Q688.648 571.239 687.26 571.611C655.122 580.101 617.718 577.458 588.745 560.592C589.389 577.775 589.116 595.044 589.1 612.238L589.113 687.125L589.015 763.105L514.523 763.259L514.494 587.485L514.43 539.593C514.419 531.646 513.647 522.859 514.743 515.023C515.695 508.21 518.668 501.28 520.767 494.718L534.718 451.765C543.3 424.696 552.505 397.795 560.896 370.672L573.437 330.2C575.872 322.417 578.09 314.455 581.037 306.85C597.391 294.64 620.021 289.781 639.988 288.212Z"/>
	<path fill="#E1E1E1" d="M646.266 356.207C658.923 356.078 670.003 359.325 679.353 368.192C695.607 383.604 700.309 408.227 700.743 429.699C701.229 453.798 697.602 479.86 680.042 497.893C670.778 507.408 660.238 510.809 647.185 511.041C635.047 511.046 622.709 506.948 613.591 498.836C597.93 484.904 592.73 462.698 591.571 442.608C590.188 418.631 593.64 390.773 610.42 372.278C620.2 361.498 631.929 356.882 646.266 356.207Z"/>
	<path d="M514.786 259.711C533.172 259.178 551.646 259.541 570.039 259.677C559.175 289.612 550.451 320.473 540.835 350.834Q511.51 442.676 483.751 535.002L463.589 601.335C459.669 614.274 456.646 628.734 450.422 640.734C444.632 651.899 434.954 659.433 423.005 663.159C409.175 667.472 392.847 665.874 380.051 659.104C371.283 654.465 365.218 647.663 360.844 638.845C356.578 630.247 354.209 620.556 351.443 611.398L337.954 565.674Q316.011 489.898 293.214 414.374L258.919 300.759C254.728 287.284 251.281 273.38 246.489 260.129C257.598 259.811 268.758 259.983 279.872 259.969C289.555 259.957 299.663 259.39 309.241 260.895Q311.184 261.186 313.096 261.635Q315.008 262.085 316.877 262.69Q318.745 263.296 320.558 264.053Q322.37 264.811 324.114 265.715C331.995 269.848 338.055 277.384 341.756 285.371C346.294 295.164 348.81 305.853 351.565 316.249L360.523 349.861L392.99 470.303C397.674 487.509 401.643 505.174 407.022 522.156C410.125 508.805 414.058 495.643 417.715 482.436L442.941 394.604L461.786 329.168C465.299 317.403 468.665 305.524 472.994 294.027C475.684 286.881 479.024 278.941 484.184 273.194C492.355 264.094 502.782 260.33 514.786 259.711Z"/>
</svg>
